<svg id="visual" viewBox="0 0 900 600" width="900" height="600" xmlns="http://www.w3.org/2000/svg" xmlns:xlink="http://www.w3.org/1999/xlink" version="1.1"><rect x="0" y="0" width="900" height="600" fill="#e3edeb"></rect><path d="M529 600L521.7 575C514.3 550 499.7 500 511.7 450C523.7 400 562.3 350 581.2 300C600 250 599 200 592.5 150C586 100 574 50 568 25L562 0L900 0L900 25C900 50 900 100 900 150C900 200 900 250 900 300C900 350 900 400 900 450C900 500 900 550 900 575L900 600Z" fill="#3d595a" stroke-linecap="round" stroke-linejoin="miter"></path></svg>